<svg width="525" height="148" viewBox="0 0 525 148" fill="none" xmlns="http://www.w3.org/2000/svg">
<path d="M87 21H63C61.8954 21 61 21.8954 61 23V26C61 27.1046 61.8954 28 63 28H87C88.1046 28 89 27.1046 89 26V23C89 21.8954 88.1046 21 87 21Z" fill="#FFCC00"/>
<path d="M114.638 119.434C108.144 104.061 90.5 61.8039 90.5 56.5V53.9973C90.5 51.7881 88.7092 50 86.5 50H63.4994C61.2905 50 59.5 51.7887 59.5 53.9976L59.5 56.5C59.5 61.7103 41.8458 104.05 35.3564 119.437C34.2416 122.08 36.1864 125 39.0553 125H57.0871C58.5712 125 59.9332 124.178 60.6254 122.866L70.6867 103.784C72.1408 101.026 76.0509 100.918 77.6549 103.592L89.3348 123.058C90.0577 124.263 91.3597 125 92.7648 125H110.94C113.81 125 115.755 122.077 114.638 119.434Z" fill="#FFCC00"/>
<path d="M54 32C54 30.8954 54.8954 30 56 30H119.911C121.575 30 122.511 31.9142 121.489 33.2279L110.601 47.2279C110.222 47.7151 109.639 48 109.022 48H56C54.8954 48 54 47.1046 54 46V32Z" fill="#FFCC00"/>
<path d="M207.464 39.28V48.208H179.144V67.888H201.224V76.816H179.144V106H168.2V39.28H207.464ZM228.55 97.168H251.11V106H217.606V39.28H228.55V97.168ZM300.487 92.368H272.551L267.751 106H256.327L280.231 39.184H292.903L316.807 106H305.287L300.487 92.368ZM297.415 83.44L286.567 52.432L275.623 83.44H297.415ZM384.704 39.28L359.648 106H346.976L321.824 39.28H333.536L353.312 94.768L373.184 39.28H384.704ZM404.704 39.28V81.808C404.704 86.864 406.016 90.672 408.64 93.232C411.328 95.792 415.04 97.072 419.776 97.072C424.576 97.072 428.288 95.792 430.912 93.232C433.6 90.672 434.944 86.864 434.944 81.808V39.28H445.888V81.616C445.888 87.056 444.704 91.664 442.336 95.44C439.968 99.216 436.8 102.032 432.832 103.888C428.864 105.744 424.48 106.672 419.68 106.672C414.88 106.672 410.496 105.744 406.528 103.888C402.624 102.032 399.52 99.216 397.216 95.44C394.912 91.664 393.76 87.056 393.76 81.616V39.28H404.704ZM482.122 106.672C477.642 106.672 473.61 105.904 470.026 104.368C466.442 102.768 463.626 100.528 461.578 97.648C459.53 94.768 458.506 91.408 458.506 87.568H470.218C470.474 90.448 471.594 92.816 473.578 94.672C475.626 96.528 478.474 97.456 482.122 97.456C485.898 97.456 488.842 96.56 490.954 94.768C493.066 92.912 494.122 90.544 494.122 87.664C494.122 85.424 493.45 83.6 492.106 82.192C490.826 80.784 489.194 79.696 487.21 78.928C485.29 78.16 482.602 77.328 479.146 76.432C474.794 75.28 471.242 74.128 468.49 72.976C465.802 71.76 463.498 69.904 461.578 67.408C459.658 64.912 458.698 61.584 458.698 57.424C458.698 53.584 459.658 50.224 461.578 47.344C463.498 44.464 466.186 42.256 469.642 40.72C473.098 39.184 477.098 38.416 481.642 38.416C488.106 38.416 493.386 40.048 497.482 43.312C501.642 46.512 503.946 50.928 504.394 56.56H492.298C492.106 54.128 490.954 52.048 488.842 50.32C486.73 48.592 483.946 47.728 480.49 47.728C477.354 47.728 474.794 48.528 472.81 50.128C470.826 51.728 469.834 54.032 469.834 57.04C469.834 59.088 470.442 60.784 471.658 62.128C472.938 63.408 474.538 64.432 476.458 65.2C478.378 65.968 481.002 66.8 484.33 67.696C488.746 68.912 492.33 70.128 495.082 71.344C497.898 72.56 500.266 74.448 502.186 77.008C504.17 79.504 505.162 82.864 505.162 87.088C505.162 90.48 504.234 93.68 502.378 96.688C500.586 99.696 497.93 102.128 494.41 103.984C490.954 105.776 486.858 106.672 482.122 106.672Z" fill="#FFCC00"/>
</svg>
