<?xml version="1.0" standalone="no"?>
<!DOCTYPE svg PUBLIC "-//W3C//DTD SVG 20010904//EN"
 "http://www.w3.org/TR/2001/REC-SVG-20010904/DTD/svg10.dtd">
<svg version="1.0" xmlns="http://www.w3.org/2000/svg"
 width="600.000000pt" height="600.000000pt" viewBox="0 0 600.000000 600.000000"
 preserveAspectRatio="xMidYMid meet">
<metadata>
Created by potrace 1.14, written by Peter Selinger 2001-2017
</metadata>
<g transform="translate(0.000000,600.000000) scale(0.100000,-0.100000)"
fill="#000000" stroke="none">
<path d="M2525 5119 c-13 -4 -25 -5 -27 -4 -2 2 -14 -5 -28 -15 -22 -17 -26
-28 -30 -104 -5 -80 0 -104 25 -131 23 -25 90 -38 130 -24 10 3 34 3 52 -1 19
-5 36 -4 39 2 3 5 10 5 17 0 11 -8 66 -6 75 3 2 2 17 -1 33 -5 17 -5 31 -5 35
1 3 6 10 6 17 1 7 -5 21 -8 32 -5 27 6 87 5 93 -2 3 -3 11 0 18 6 8 6 14 6 18
0 5 -8 65 -5 74 4 2 2 17 -1 33 -5 17 -5 31 -5 35 1 3 6 10 6 17 1 11 -9 55
-7 64 2 2 2 20 0 39 -4 20 -5 37 -4 40 2 4 5 10 5 17 0 7 -5 21 -8 32 -5 23 4
87 6 101 2 5 -2 23 5 41 14 35 18 49 60 41 118 -3 16 -1 32 3 34 4 3 2 23 -3
45 -15 56 -45 72 -133 70 -27 -1 -58 -1 -67 -1 -55 0 -150 0 -165 1 -10 0 -72
0 -138 -1 -66 0 -127 0 -135 0 -8 1 -62 1 -120 0 -123 0 -109 -1 -188 3 -34 2
-73 0 -87 -3z"/>
<path d="M2316 4763 c-3 -4 -28 -6 -55 -4 -40 2 -53 -2 -73 -22 -20 -20 -25
-36 -27 -88 -1 -34 -4 -66 -7 -70 -2 -4 2 -10 8 -12 9 -4 9 -6 1 -6 -8 -1 -9
-10 -5 -28 4 -16 7 -39 6 -53 -3 -33 -4 -71 -4 -92 0 -10 0 -42 -1 -72 -1 -30
2 -59 5 -65 4 -6 2 -11 -4 -11 -6 0 -8 -5 -4 -11 4 -6 6 -40 6 -75 0 -73 14
-96 70 -112 20 -5 39 -8 41 -6 2 2 26 4 53 4 53 0 77 0 97 1 22 0 260 0 311
-1 28 -1 53 -3 57 -6 4 -2 10 0 13 5 3 5 21 6 39 2 18 -5 41 -5 52 -1 11 4 31
4 45 1 14 -4 48 -4 75 -1 28 3 62 2 76 -1 15 -4 31 -4 37 0 6 3 43 4 82 1 40
-3 74 -2 76 1 2 4 19 4 37 0 18 -5 41 -5 52 -1 11 4 23 6 27 4 4 -3 35 -4 70
-4 35 1 74 0 88 0 14 -1 32 -1 40 -1 8 1 33 1 55 0 22 -1 45 -1 50 -1 6 0 163
1 349 2 339 1 339 1 360 23 23 26 28 32 192 242 64 83 126 162 138 176 12 15
30 39 40 53 11 15 30 39 43 54 73 85 59 157 -32 169 -57 8 -97 8 -101 2 -2 -4
-19 -4 -36 0 -18 4 -46 4 -63 1 -16 -3 -49 -3 -73 1 -23 3 -45 3 -47 -1 -2 -4
-24 -4 -47 -1 -24 4 -56 4 -73 1 -16 -3 -49 -3 -73 1 -23 3 -45 3 -47 -1 -2
-4 -24 -4 -47 -1 -24 4 -56 4 -73 1 -16 -3 -49 -3 -73 1 -23 3 -45 3 -47 -1
-2 -4 -24 -4 -47 -1 -24 4 -56 4 -73 1 -16 -4 -41 -3 -55 0 -14 4 -34 4 -45 0
-11 -4 -32 -4 -46 0 -15 4 -32 4 -40 0 -7 -5 -17 -6 -22 -3 -5 3 -39 4 -75 3
-37 -1 -74 -1 -82 -1 -8 0 -44 0 -80 0 -36 0 -72 0 -80 0 -8 0 -44 0 -80 0
-36 0 -72 0 -80 0 -8 0 -44 0 -80 0 -36 0 -72 0 -80 0 -8 0 -44 0 -80 0 -36 0
-72 0 -80 0 -8 0 -44 0 -80 0 -36 0 -69 0 -75 0 -5 0 -53 0 -105 0 -52 0 -104
1 -115 1 -11 1 -27 1 -35 1 -91 -2 -122 -1 -129 3 -4 3 -11 2 -15 -1z"/>
<path d="M2676 3963 c-2 -3 -42 -5 -88 -5 -121 0 -176 -30 -197 -108 -5 -19
-12 -75 -14 -125 -3 -49 -7 -99 -10 -110 -26 -106 -244 -706 -338 -932 -11
-28 -21 -53 -49 -123 -11 -30 -25 -64 -30 -75 -16 -37 -151 -370 -154 -380 -4
-15 -17 -45 -38 -95 -11 -25 -21 -49 -22 -55 -2 -5 -13 -32 -24 -58 -12 -27
-22 -51 -22 -54 0 -3 -6 -19 -14 -36 -8 -18 -38 -88 -66 -157 -46 -112 -76
-184 -115 -275 -84 -196 -94 -225 -89 -272 3 -26 10 -51 17 -55 7 -4 8 -8 2
-8 -12 0 66 -70 80 -71 5 0 19 -2 30 -5 11 -2 43 -4 70 -3 28 0 61 0 75 0 14
0 61 0 105 0 44 0 86 0 93 0 24 -2 43 -2 105 -2 34 0 73 -1 87 -2 14 -2 40 0
58 4 18 4 45 4 60 0 15 -4 42 -4 60 0 17 4 32 3 32 -1 0 -15 88 21 113 45 13
14 43 62 67 107 23 46 55 106 70 133 33 60 140 263 189 360 20 39 38 72 41 75
3 3 23 40 45 82 45 87 75 115 139 127 88 16 142 -26 222 -174 14 -27 37 -64
50 -82 13 -17 24 -34 24 -37 0 -3 16 -30 35 -60 19 -30 35 -57 35 -60 0 -3 12
-22 26 -43 14 -21 30 -47 35 -58 14 -28 30 -55 57 -92 12 -17 22 -34 22 -38 0
-4 12 -26 28 -49 15 -22 38 -62 52 -88 14 -27 28 -48 32 -48 5 0 8 -6 8 -14 0
-20 70 -76 96 -76 11 0 23 -3 27 -6 7 -7 137 -11 137 -4 0 3 21 4 47 3 27 -2
77 -3 113 -3 36 1 76 1 90 1 14 0 61 0 105 0 44 0 87 0 95 0 21 -1 106 0 165
2 120 5 188 134 130 247 -7 14 -29 63 -48 110 -69 171 -159 386 -178 427 -10
24 -19 45 -19 48 0 3 -10 27 -21 53 -35 77 -46 106 -54 132 -4 14 -11 30 -15
35 -4 6 -26 60 -50 120 -24 61 -47 114 -52 119 -4 6 -8 17 -8 25 0 8 -8 33
-19 55 -10 23 -28 66 -40 96 -12 30 -26 64 -31 75 -5 11 -25 63 -45 115 -20
52 -42 109 -49 125 -7 17 -23 57 -36 90 -12 33 -26 69 -31 80 -5 11 -18 47
-30 80 -12 33 -25 64 -30 70 -5 5 -9 17 -9 27 0 10 -4 26 -9 36 -13 22 -61
155 -61 166 0 4 -6 22 -14 39 -8 18 -33 91 -56 162 -34 106 -43 152 -49 245
-8 111 -20 160 -41 160 -6 0 -10 6 -10 14 0 33 -120 54 -260 46 -47 -3 -109
-2 -138 1 -29 3 -55 3 -57 0 -1 -3 -47 -4 -102 -1 -54 3 -136 3 -183 0 -47 -3
-99 -2 -117 1 -18 4 -34 5 -37 2z"/>
</g>
</svg>
