<svg width="150" height="148" viewBox="0 0 150 148" fill="none" xmlns="http://www.w3.org/2000/svg">
<path d="M87 21H63C61.8954 21 61 21.8954 61 23V26C61 27.1046 61.8954 28 63 28H87C88.1046 28 89 27.1046 89 26V23C89 21.8954 88.1046 21 87 21Z" fill="#FFCC00"/>
<path d="M114.638 119.434C108.144 104.061 90.5 61.8039 90.5 56.5V53.9973C90.5 51.7881 88.7092 50 86.5 50H63.4994C61.2905 50 59.5 51.7887 59.5 53.9976L59.5 56.5C59.5 61.7103 41.8458 104.05 35.3564 119.437C34.2416 122.08 36.1864 125 39.0553 125H57.0871C58.5712 125 59.9332 124.178 60.6254 122.866L70.6867 103.784C72.1408 101.026 76.0509 100.918 77.6549 103.592L89.3348 123.058C90.0577 124.263 91.3597 125 92.7648 125H110.94C113.81 125 115.755 122.077 114.638 119.434Z" fill="#FFCC00"/>
<path d="M54 32C54 30.8954 54.8954 30 56 30H119.911C121.575 30 122.511 31.9142 121.489 33.2279L110.601 47.2279C110.222 47.7151 109.639 48 109.022 48H56C54.8954 48 54 47.1046 54 46V32Z" fill="#FFCC00"/>
</svg>
